<svg width="24" height="24" viewBox="0 0 24 24" fill="none" xmlns="http://www.w3.org/2000/svg">
<path d="M21.4082 19.7545L16.9978 15.344C18.0596 13.9304 18.6328 12.2098 18.6309 10.4418C18.6309 5.92589 14.9568 2.25183 10.4409 2.25183C5.92495 2.25183 2.25089 5.92589 2.25089 10.4418C2.25089 14.9578 5.92495 18.6318 10.4409 18.6318C12.2089 18.6338 13.9295 18.0605 15.3431 16.9987L19.7535 21.4092C19.9768 21.6087 20.268 21.7153 20.5673 21.7069C20.8667 21.6985 21.1514 21.5759 21.3632 21.3641C21.5749 21.1524 21.6976 20.8676 21.7059 20.5683C21.7143 20.2689 21.6078 19.9777 21.4082 19.7545ZM4.59088 10.4418C4.59088 9.28481 4.93398 8.15377 5.57679 7.19174C6.21959 6.22972 7.13324 5.47991 8.20218 5.03713C9.27113 4.59436 10.4474 4.47851 11.5822 4.70424C12.7169 4.92996 13.7593 5.48712 14.5775 6.30525C15.3956 7.12339 15.9527 8.16576 16.1785 9.30055C16.4042 10.4353 16.2883 11.6116 15.8456 12.6805C15.4028 13.7495 14.653 14.6631 13.691 15.3059C12.7289 15.9487 11.5979 16.2918 10.4409 16.2918C8.88994 16.29 7.40305 15.673 6.30636 14.5763C5.20968 13.4797 4.59274 11.9928 4.59088 10.4418Z" fill="#718096"/>
</svg>
