<svg width="64" height="65" viewBox="0 0 64 65" fill="none" xmlns="http://www.w3.org/2000/svg">
<path d="M0 51.0154V56.3529C0 60.7654 10.75 64.3529 24 64.3529C37.25 64.3529 48 60.7654 48 56.3529V51.0154C42.8375 54.6529 33.4 56.3529 24 56.3529C14.6 56.3529 5.1625 54.6529 0 51.0154ZM40 16.3529C53.25 16.3529 64 12.7654 64 8.35291C64 3.94041 53.25 0.352905 40 0.352905C26.75 0.352905 16 3.94041 16 8.35291C16 12.7654 26.75 16.3529 40 16.3529ZM0 37.9029V44.3529C0 48.7654 10.75 52.3529 24 52.3529C37.25 52.3529 48 48.7654 48 44.3529V37.9029C42.8375 42.1529 33.3875 44.3529 24 44.3529C14.6125 44.3529 5.1625 42.1529 0 37.9029ZM52 39.2779C59.1625 37.8904 64 35.3154 64 32.3529V27.0154C61.1 29.0654 56.8375 30.4654 52 31.3279V39.2779ZM24 20.3529C10.75 20.3529 0 24.8279 0 30.3529C0 35.8779 10.75 40.3529 24 40.3529C37.25 40.3529 48 35.8779 48 30.3529C48 24.8279 37.25 20.3529 24 20.3529ZM51.4125 27.3904C58.9125 26.0404 64 23.3904 64 20.3529V15.0154C59.5625 18.1529 51.9375 19.8404 43.9125 20.2404C47.6 22.0279 50.3125 24.4279 51.4125 27.3904Z" fill="#DD6B20"/>
</svg>
