<svg width="26" height="33" viewBox="0 0 26 33" fill="none" xmlns="http://www.w3.org/2000/svg">
<path d="M14.6248 18.2332L18.8853 19.2919C22.5858 20.2116 25.1838 23.5341 25.1838 27.3471V31.875H13H0.816284V27.3471C0.816284 23.5341 3.41422 20.2115 7.11472 19.2919L11.3752 18.2332H14.6248Z" fill="#C53030"/>
<path d="M19.0341 19.3313C20.2328 17.9383 20.9577 16.1258 20.9577 14.1438V9.08281C20.9577 4.68781 17.3949 1.125 12.9999 1.125C8.60499 1.125 5.04211 4.68781 5.04211 9.08281V14.1438C5.04211 21.0016 10.6016 26.5611 17.4594 26.5611H17.4594C20.1196 26.5611 22.5844 25.7246 24.6051 24.3003C23.6598 21.9069 21.6269 20.0265 19.0341 19.3313Z" fill="#C53030"/>
<path d="M12.9999 18.5676C10.1205 18.5676 7.78625 16.2334 7.78625 13.354V9.87267C7.78625 6.99329 10.1205 4.65903 12.9999 4.65903C15.8793 4.65903 18.2135 6.99322 18.2135 9.87267V13.354C18.2135 16.2334 15.8793 18.5676 12.9999 18.5676Z" fill="#C53030"/>
<path d="M18.2135 9.87267C18.2135 6.99322 15.8793 4.65903 12.9999 4.65903C10.1205 4.65903 7.78625 6.99329 7.78625 9.87267V11.6729C8.76526 9.79167 10.7325 8.50692 12.9999 8.50692C15.2301 8.50692 17.1699 9.74986 18.1645 11.5808C18.1645 11.5808 18.1824 11.5792 18.2135 11.5764V9.87267H18.2135Z" fill="#C53030"/>
<path d="M20.0694 19.0099C20.1988 18.8224 20.3217 18.6302 20.4358 18.4326C21.1861 17.1344 21.5827 15.6513 21.5827 14.1438V9.08281C21.5827 4.35025 17.7324 0.5 12.9998 0.5C8.26728 0.5 4.4171 4.35025 4.4171 9.08281V14.1438C4.4171 15.9407 4.78241 17.654 5.44266 19.2131C2.27603 20.6438 0.191284 23.8321 0.191284 27.3472V31.875C0.191284 32.2201 0.471097 32.5 0.816284 32.5H15.8125C16.1577 32.5 15.7448 31.9597 15.7448 31.6145C15.7448 31.2694 10.5327 31.25 10.1875 31.25H1.44128V27.3472C1.44128 24.3139 3.24666 21.5639 5.98547 20.3401C8.19416 24.4136 12.509 27.1861 17.4593 27.1861C19.886 27.1861 22.2234 26.5252 24.2698 25.2684C24.4576 25.9335 24.5588 26.6311 24.5588 27.3472V31.25H10.1875C9.84228 31.25 15.1875 31.5299 15.1875 31.875C15.1875 32.2201 15.4673 32.5 15.8125 32.5H25.1838C25.529 32.5 25.8088 32.2201 25.8088 31.875V27.3472C25.8088 23.6242 23.4901 20.3166 20.0694 19.0099ZM17.4593 25.9361C10.957 25.9361 5.6671 20.6461 5.6671 14.1438V9.08281C5.6671 5.0395 8.9566 1.75 12.9999 1.75C17.0432 1.75 20.3327 5.0395 20.3327 9.08281V14.1438C20.3327 15.432 19.9942 16.6987 19.3536 17.8071C18.7317 18.8833 17.8398 19.7909 16.7745 20.4319C16.4787 20.6098 16.3832 20.9938 16.5611 21.2896C16.7391 21.5854 17.1231 21.6809 17.4188 21.5029C18.0884 21.1001 18.6986 20.6066 19.2335 20.0414C21.2922 20.7031 22.9316 22.1907 23.8222 24.0735C21.9242 25.2934 19.7353 25.9361 17.4593 25.9361Z" fill="white"/>
<path d="M18.8386 13.354V9.87266C18.8386 6.65321 16.2194 4.03401 12.9999 4.03401C9.78045 4.03401 7.16125 6.65321 7.16125 9.87266V13.354C7.16125 16.5734 9.78045 19.1926 12.9999 19.1926C16.2194 19.1926 18.8386 16.5734 18.8386 13.354ZM12.9999 5.28402C15.4979 5.28402 17.5345 7.29071 17.5861 9.77647C16.3851 8.58028 14.7452 7.8819 12.9999 7.8819C11.2481 7.8819 9.61233 8.57728 8.41382 9.7726C8.46739 7.28859 10.5033 5.28402 12.9999 5.28402ZM12.9999 17.9426C10.4697 17.9426 8.41126 15.8841 8.41126 13.354V11.8312C9.33926 10.1625 11.0836 9.13191 12.9999 9.13191C14.9081 9.13191 16.6609 10.1652 17.5885 11.8317V13.354C17.5885 15.8842 15.5301 17.9426 12.9999 17.9426Z" fill="white"/>
</svg>
