<svg id="Layer_1" data-name="Layer 1" xmlns="http://www.w3.org/2000/svg" viewBox="0 0 100 57"><defs><style>.cls-1{fill:#38a169;}.cls-2{font-size:19.8px;fill:#fff;font-family:ArialNarrow-Bold, Arial;font-weight:700;}.cls-3{letter-spacing:-0.06em;}.cls-4{letter-spacing:0em;}.cls-5{font-size:18.23px;}</style></defs><path class="cls-1" d="M1,22.86c.71-1.55,1.93-2,3.59-2,5,.08,7.44,0,12.47,0a2.69,2.69,0,0,0,2.8-3.13,2.28,2.28,0,0,0-2.59-2c-2.59,0-4.3,0-6.14,0a2.68,2.68,0,1,1,0-5.35H16c0-1.94,0-3.81,0-5.68a2.7,2.7,0,0,1,2.91-2.88H67.22v1q0,7.32,0,14.64c0,2.09,1,3.13,3.11,3.13H89.71a10.22,10.22,0,0,1,5.8,1.77,7.09,7.09,0,0,1,3.29,6c.08,5.56,0,11.13,0,16.69a2.63,2.63,0,0,1-2.68,2.66c-1.34,0-2.68,0-4,0a.68.68,0,0,0-.8.59,10.24,10.24,0,0,1-19.84-.12,4.58,4.58,0,0,0-.19-.46H70.5c-8.48,0-17,0-25.44,0-.69,0-.94.19-1.13.87a10.26,10.26,0,0,1-19.72-.14c-.07-.22-.13-.44-.21-.71H19a2.73,2.73,0,0,1-3-3V37c-1.71,0-5.5-.07-7.12,0a3.33,3.33,0,0,1-3.6-2V33.57c.71-1.54,1.94-2,3.6-2,7.61.06-3.63,0,4,0a2.76,2.76,0,0,0,2.77-1.56,2.68,2.68,0,0,0-2.68-3.8c-7.65,0-.73,0-8.38,0-1.66,0-2.88-.44-3.59-2ZM34.17,40.72A4.91,4.91,0,1,0,39,45.65,4.92,4.92,0,0,0,34.17,40.72Zm47.35,0a4.91,4.91,0,1,0,4.81,5A4.92,4.92,0,0,0,81.52,40.72Z"/><path class="cls-1" d="M67.21,27.12V1.78C81.84,4.56,89.64,15.06,96.35,27.12Z"/><text class="cls-2" transform="translate(21.49 22.73)">GR<tspan class="cls-3" x="24.35" y="0">A</tspan><tspan class="cls-4" x="34.88" y="0">TIS</tspan><tspan class="cls-5"><tspan x="0.17" y="15.11">ONGKIR</tspan></tspan></text></svg>