<svg xmlns="http://www.w3.org/2000/svg" xmlns:xlink="http://www.w3.org/1999/xlink" viewBox="0 0 1630.29 279"><defs><style>.cls-1{fill:none;}.cls-2{isolation:isolate;}.cls-3{clip-path:url(#clip-path);}.cls-4{fill:#ff9037;}.cls-5{mix-blend-mode:color-burn;fill:url(#linear-gradient);}</style><clipPath id="clip-path"><path class="cls-1" d="M50.14,85.15H1571.84a0,0,0,0,1,0,0v3.41a106.58,106.58,0,0,1-106.58,106.58H50.14a0,0,0,0,1,0,0v-110A0,0,0,0,1,50.14,85.15Z"/></clipPath><linearGradient id="linear-gradient" x1="785.27" y1="214.35" x2="785.27" y2="104.36" gradientTransform="matrix(1, 0, 0, -1, 0, 299.5)" gradientUnits="userSpaceOnUse"><stop offset="0" stop-color="#fff"/><stop offset="0.13" stop-color="#c7c7c7"/><stop offset="0.3" stop-color="#858585"/><stop offset="0.44" stop-color="#ababab"/><stop offset="0.6" stop-color="#cfcfcf"/><stop offset="0.76" stop-color="#e9e9e9"/><stop offset="0.89" stop-color="#f9f9f9"/><stop offset="1" stop-color="#fff"/></linearGradient></defs><g class="cls-2"><g id="Layer_1" data-name="Layer 1"><g class="cls-3"><path class="cls-4" d="M6.43,85.15H1571.84a0,0,0,0,1,0,0v3.41a106.58,106.58,0,0,1-106.58,106.58H6.43a0,0,0,0,1,0,0v-110a0,0,0,0,1,0,0Z"/><path class="cls-5" d="M-1.29,85.15H1571.84a0,0,0,0,1,0,0v3.41a106.58,106.58,0,0,1-106.58,106.58H-1.29a0,0,0,0,1,0,0v-110a0,0,0,0,1,0,0Z"/></g></g></g></svg>