<svg id="Layer_1" data-name="Layer 1" xmlns="http://www.w3.org/2000/svg" xmlns:xlink="http://www.w3.org/1999/xlink" viewBox="0 0 1630.29 279"><defs><style>.cls-1{fill:none;}.cls-2{clip-path:url(#clip-path);}.cls-3{fill:url(#Безымянный_градиент_58);}.cls-4,.cls-5{fill:#ff1600;}.cls-4{opacity:0.2;}.cls-5{opacity:0.14;}</style><clipPath id="clip-path"><path class="cls-1" d="M53.61,87.61H1575.31a0,0,0,0,1,0,0V91a106.58,106.58,0,0,1-106.58,106.58H53.61a0,0,0,0,1,0,0v-110A0,0,0,0,1,53.61,87.61Z"/></clipPath><radialGradient id="Безымянный_градиент_58" cx="-340.08" cy="-1122.39" r="2803.53" gradientTransform="matrix(0.64, 0, 0, -1.32, 259.65, -749.17)" gradientUnits="userSpaceOnUse"><stop offset="0" stop-color="#df0d00"/><stop offset="0.16" stop-color="#db0d00"/><stop offset="0.33" stop-color="#cf0c00"/><stop offset="0.5" stop-color="#ba0a00"/><stop offset="0.67" stop-color="#9d0800"/><stop offset="0.84" stop-color="#780500"/><stop offset="1" stop-color="#4f0200"/></radialGradient></defs><g class="cls-2"><rect class="cls-3" x="41.38" y="-503.92" width="1687.72" height="1242.65"/><path class="cls-4" d="M-989.19,514.78c13.65-99.11,747.41-185.47,876.62-198.06,194.82-19,380.66,112.14,572.35,79.47,199.52-34,299-228,498.77-261,155.25-25.63,303.89,56.18,460.79,75.08C1568,228.21,1726.87,184.7,1826.9,98.69V-552.59L-989.19-543.9Z"/><path class="cls-5" d="M-346.38-295.51c132.14-53.39,310.54-49.23,429,19.19C163.42-229.68,191-66,412.2,2.08,622.51,66.78,844.9-109,1117.09,61.41c61.82,38.71,124.51,67.27,187.81,89.82,200.38,71.39,376.58,5.74,506.59-88.11V-511.11h-2162Z"/></g></svg>