<svg id="Layer_1" data-name="Layer 1" xmlns="http://www.w3.org/2000/svg" xmlns:xlink="http://www.w3.org/1999/xlink" viewBox="0 0 1630.29 279"><defs><style>.cls-1{fill:none;}.cls-2{clip-path:url(#clip-path);}.cls-3{fill:url(#New_Gradient_Swatch_6);}.cls-4{fill:url(#New_Gradient_Swatch_6-2);}.cls-5{fill:url(#New_Gradient_Swatch_6-3);}.cls-6{fill:url(#New_Gradient_Swatch_6-4);}.cls-7{fill:url(#New_Gradient_Swatch_6-5);}.cls-8{fill:url(#New_Gradient_Swatch_6-6);}.cls-9{fill:url(#New_Gradient_Swatch_6-7);}.cls-10{fill:url(#New_Gradient_Swatch_6-8);}</style><clipPath id="clip-path"><path class="cls-1" d="M66.42,86H1588.11a0,0,0,0,1,0,0v3.41A106.58,106.58,0,0,1,1481.53,196H66.42a0,0,0,0,1,0,0V86A0,0,0,0,1,66.42,86Z"/></clipPath><linearGradient id="New_Gradient_Swatch_6" x1="637.9" y1="-215.36" x2="1969.02" y2="1115.77" gradientTransform="matrix(1, 0, 0, -1, -477.46, 900.41)" gradientUnits="userSpaceOnUse"><stop offset="0" stop-color="#fc697d"/><stop offset="1" stop-color="#dc2276"/></linearGradient><linearGradient id="New_Gradient_Swatch_6-2" x1="613.6" y1="64.05" x2="570.51" y2="166.2" gradientTransform="matrix(-1, 0, 0, 1, 2129.46, 0)" xlink:href="#New_Gradient_Swatch_6"/><linearGradient id="New_Gradient_Swatch_6-3" x1="533.22" y1="344.45" x2="1272.56" y2="344.45" gradientTransform="matrix(-1, 0, 0, 1, 2129.46, 0)" xlink:href="#New_Gradient_Swatch_6"/><linearGradient id="New_Gradient_Swatch_6-4" x1="1792.84" y1="483.56" x2="1293.43" y2="579.94" gradientTransform="matrix(-1, 0, 0, 1, 2129.46, 0)" xlink:href="#New_Gradient_Swatch_6"/><linearGradient id="New_Gradient_Swatch_6-5" x1="733.35" y1="501.76" x2="1536.98" y2="501.76" gradientTransform="matrix(-1, 0, 0, 1, 2129.46, 0)" xlink:href="#New_Gradient_Swatch_6"/><linearGradient id="New_Gradient_Swatch_6-6" x1="804.71" y1="-61.43" x2="716.18" y2="125.26" gradientTransform="matrix(-1, 0, 0, 1, 2129.46, 0)" xlink:href="#New_Gradient_Swatch_6"/><linearGradient id="New_Gradient_Swatch_6-7" x1="1865.23" y1="30.79" x2="1562.22" y2="367.47" gradientTransform="matrix(-1, 0, 0, 1, 2129.46, 0)" xlink:href="#New_Gradient_Swatch_6"/><linearGradient id="New_Gradient_Swatch_6-8" x1="1824.17" y1="399.39" x2="1824.17" y2="675" gradientTransform="matrix(-1, 0, 0, 1, 2129.46, 0)" xlink:href="#New_Gradient_Swatch_6"/></defs><g class="cls-2"><rect class="cls-3" x="-2.3" y="-52.62" width="1656.6" height="1005.65" transform="translate(1651.99 900.41) rotate(-180)"/><path class="cls-4" d="M1654.3,35c-76.38,25.13-165.39,58.59-258.19,102.45,63.07-1.94,129.87-2,200.12.36q28.65,1,58.07,2.57Z"/><path class="cls-5" d="M1065.84,339.83C977.09,410.59,909,482.72,856.89,552.91c98.43-88.23,224.68-179.56,386.53-264.28,121.15-63.47,241.86-112.63,352.81-150.82-70.25-2.41-137-2.3-200.12-.36C1286.45,189.23,1171.52,255.53,1065.84,339.83Z"/><path class="cls-6" d="M417.84,953.05H591.18c-1-27.85-.69-56.92,1.2-86.87l.09-.11c14.09-221.63,116-491.72,461.79-697.83q-47.57,7.08-93.76,15.63l-.08,0C846.87,255.69,674.48,382.74,553.24,568.28,456.55,716.31,425.26,851.6,417.84,953.05Z"/><path class="cls-7" d="M592.47,866.07C643.71,782.2,725.8,670.25,856.89,552.91c52.11-70.19,120.2-142.32,208.95-213.08,105.68-84.3,220.61-150.6,330.27-202.38-16.16.52-32.15,1.15-47.79,1.94h-.18q-14.76.63-29.29,1.52c-91.25,5.25-179.47,14.58-264.59,27.33C708.44,374.35,606.56,644.44,592.47,866.07Z"/><path class="cls-8" d="M1098.07,143.27c90.38-5.09,174.38-5.72,250.07-3.88h.18c15.64-.79,31.63-1.42,47.79-1.94C1488.91,93.59,1577.92,60.13,1654.3,35V-49.19C1486.84-16.09,1284.2,41.3,1098.07,143.27Z"/><path class="cls-9" d="M-2.3,442.17V548.66A2896.55,2896.55,0,0,1,612.87,270.58a2841.7,2841.7,0,0,1,347.55-86.66l.08,0q46.28-8.49,93.76-15.63c5.44-3.2,10.88-6.4,16.42-9.6,9.07-5.24,18.23-10.39,27.39-15.37-75.78,4.25-156.15,11.59-239.88,23.24C474.26,219.81,187.72,338.78-2.3,442.17Z"/><path class="cls-10" d="M612.87,270.58A2896.55,2896.55,0,0,0-2.3,548.66V710.91C17.57,675,43.76,636.68,78.06,597.29,240.26,410.86,488.17,312.65,612.87,270.58Z"/></g></svg>