<svg id="Layer_1" data-name="Layer 1" xmlns="http://www.w3.org/2000/svg" xmlns:xlink="http://www.w3.org/1999/xlink" viewBox="0 0 1630.29 279"><defs><style>.cls-1{fill:none;}.cls-2{clip-path:url(#clip-path);}.cls-3{fill:url(#New_Gradient_Swatch_5);}.cls-4{fill:url(#New_Gradient_Swatch_5-2);}.cls-5{fill:url(#New_Gradient_Swatch_5-3);}.cls-6{fill:url(#New_Gradient_Swatch_5-4);}.cls-7{fill:url(#New_Gradient_Swatch_5-5);}</style><clipPath id="clip-path"><path class="cls-1" d="M59.77,90.22H1581.46a0,0,0,0,1,0,0v3.41a106.58,106.58,0,0,1-106.58,106.58H59.77a0,0,0,0,1,0,0v-110A0,0,0,0,1,59.77,90.22Z"/></clipPath><linearGradient id="New_Gradient_Swatch_5" x1="186.57" y1="-396.66" x2="1429.72" y2="846.5" gradientUnits="userSpaceOnUse"><stop offset="0" stop-color="#bbdff2"/><stop offset="1" stop-color="#8eb7fd"/></linearGradient><linearGradient id="New_Gradient_Swatch_5-2" x1="280.08" y1="319.37" x2="338.23" y2="420.09" xlink:href="#New_Gradient_Swatch_5"/><linearGradient id="New_Gradient_Swatch_5-3" x1="580.35" y1="-70.24" x2="955.89" y2="456.59" xlink:href="#New_Gradient_Swatch_5"/><linearGradient id="New_Gradient_Swatch_5-4" x1="850.28" y1="35.01" x2="1143.79" y2="543.38" xlink:href="#New_Gradient_Swatch_5"/><linearGradient id="New_Gradient_Swatch_5-5" x1="1085.81" y1="43.06" x2="1085.81" y2="136.98" xlink:href="#New_Gradient_Swatch_5"/></defs><g class="cls-2"><rect class="cls-3" x="33.76" y="-243.85" width="1548.77" height="937.53"/><path class="cls-4" d="M371.49,325.65C309,377,262.83,430.16,229.38,482.93A1907.28,1907.28,0,0,0,33.8,556.87V496.13C180.91,360.62,372.38,254.89,589.13,190.58c-53.56,25.28-103.81,53.55-149.94,84.75Q402.47,300.13,371.49,325.65Z"/><path class="cls-5" d="M1582.49,290.1V524.25C1455.81,472,1262.57,411.09,1012.37,391.87c-65.92-5.09-129.74-6.75-191.22-5.72-.49,0-1,.05-1.54.05a2070.7,2070.7,0,0,0-590.23,96.73C262.83,430.16,309,377,371.49,325.65c71.58-33.35,501-219.53,968.48-117.37C1437.15,229.51,1517.54,259.24,1582.49,290.1Z"/><path class="cls-6" d="M1582.49,183.29V290.1c-65-30.86-145.34-60.59-242.52-81.82-467.44-102.16-896.9,84-968.48,117.37q31-25.45,67.7-50.32c46.13-31.2,96.38-59.47,149.94-84.75a1691.09,1691.09,0,0,1,286.79-58.49C1155.85,99.62,1407,139.23,1582.49,183.29Z"/><path class="cls-7" d="M1582.49,55.61V183.29c-175.47-44.06-426.64-83.67-706.57-51.2a1691.09,1691.09,0,0,0-286.79,58.49C865.18,60.35,1230.18,9.93,1582.49,55.61Z"/></g></svg>