<svg id="Layer_1" data-name="Layer 1" xmlns="http://www.w3.org/2000/svg" xmlns:xlink="http://www.w3.org/1999/xlink" viewBox="0 0 1630.29 279"><defs><style>.cls-1{fill:none;}.cls-2{clip-path:url(#clip-path);}.cls-3{fill:url(#New_Gradient_Swatch_9);}.cls-4{fill:url(#New_Gradient_Swatch_9-2);}.cls-5{fill:url(#New_Gradient_Swatch_9-3);}.cls-6{fill:url(#New_Gradient_Swatch_9-4);}.cls-7{fill:url(#New_Gradient_Swatch_9-5);}.cls-8{fill:url(#New_Gradient_Swatch_9-6);}.cls-9{fill:url(#New_Gradient_Swatch_9-7);}.cls-10{fill:url(#New_Gradient_Swatch_9-8);}.cls-11{fill:url(#New_Gradient_Swatch_9-9);}.cls-12{fill:url(#New_Gradient_Swatch_9-10);}.cls-13{fill:url(#New_Gradient_Swatch_9-11);}</style><clipPath id="clip-path"><path class="cls-1" d="M54,87.56H1575.66a0,0,0,0,1,0,0V91a106.58,106.58,0,0,1-106.58,106.58H54a0,0,0,0,1,0,0v-110A0,0,0,0,1,54,87.56Z"/></clipPath><linearGradient id="New_Gradient_Swatch_9" x1="348.75" y1="169.7" x2="1655.65" y2="1476.6" gradientTransform="matrix(0.04, 1, -1, 0.04, 1562.47, -1091.54)" gradientUnits="userSpaceOnUse"><stop offset="0" stop-color="#facf5c"/><stop offset="1" stop-color="#fc9173"/></linearGradient><linearGradient id="New_Gradient_Swatch_9-2" x1="835.12" y1="1417.96" x2="1162.42" y2="1417.96" xlink:href="#New_Gradient_Swatch_9"/><linearGradient id="New_Gradient_Swatch_9-3" x1="1028.82" y1="1343.33" x2="1279.1" y2="1343.33" xlink:href="#New_Gradient_Swatch_9"/><linearGradient id="New_Gradient_Swatch_9-4" x1="1294.95" y1="1271.96" x2="1349.43" y2="1271.96" xlink:href="#New_Gradient_Swatch_9"/><linearGradient id="New_Gradient_Swatch_9-5" x1="1158.27" y1="1317.22" x2="1308.07" y2="1317.22" xlink:href="#New_Gradient_Swatch_9"/><linearGradient id="New_Gradient_Swatch_9-6" x1="1279.1" y1="1041.76" x2="1308.04" y2="1041.76" xlink:href="#New_Gradient_Swatch_9"/><linearGradient id="New_Gradient_Swatch_9-7" x1="1162.42" y1="888.28" x2="1306.34" y2="888.28" xlink:href="#New_Gradient_Swatch_9"/><linearGradient id="New_Gradient_Swatch_9-8" x1="1254.41" y1="581.14" x2="1316.72" y2="581.14" xlink:href="#New_Gradient_Swatch_9"/><linearGradient id="New_Gradient_Swatch_9-9" x1="1196.98" y1="120.89" x2="1254.41" y2="120.89" xlink:href="#New_Gradient_Swatch_9"/><linearGradient id="New_Gradient_Swatch_9-10" x1="980.78" y1="707.99" x2="1283.73" y2="707.99" xlink:href="#New_Gradient_Swatch_9"/><linearGradient id="New_Gradient_Swatch_9-11" x1="1228.33" y1="555.39" x2="1349.43" y2="555.39" xlink:href="#New_Gradient_Swatch_9"/></defs><g class="cls-2"><polygon class="cls-3" points="-296.88 210.11 26.05 -543.98 1554.63 -597.57 1573.1 362.57 -296.88 210.11"/><path class="cls-4" d="M311.87,115.44C211.94,81.81,121.7,40.07,44.78-8.88L38-202.47c49.06,51.54,104,98.36,163.45,140C217.61-4.62,251.11,56.17,311.87,115.44Z"/><path class="cls-5" d="M363.57,160.36a775.7,775.7,0,0,0,102.12,66.43C319.87,205,179.47,169,49.32,120.48L44.78-8.88c76.92,49,167.16,90.69,267.09,124.32A590.41,590.41,0,0,0,363.57,160.36Z"/><path class="cls-6" d="M611.36,292.05,56,311.52l-1.91-54.44c144.86,3.55,300.35,3.05,465-3.21C548.4,267.68,579.26,280.44,611.36,292.05Z"/><path class="cls-7" d="M519.09,253.87c-164.63,6.26-320.12,6.76-465,3.21l-4.79-136.6C179.47,169,319.87,205,465.69,226.79Q491.46,241,519.09,253.87Z"/><path class="cls-8" d="M525.71,253.64l-6.62.23q-27.62-12.9-53.4-27.08,95.59,14.42,193.92,20.46C615.79,249.72,571.07,251.87,525.71,253.64Z"/><path class="cls-9" d="M1116.44,207.28c-140.4,16.63-293.18,30.7-456.83,40q-98.16-6-193.92-20.46a775.7,775.7,0,0,1-102.12-66.43,590.41,590.41,0,0,1-51.7-44.92C542.35,193,824.8,227.38,1116.44,207.24Z"/><path class="cls-10" d="M912.16,248.45a2215,2215,0,0,1-252.55-1.2c163.65-9.27,316.43-23.34,456.83-40,96.91-11.53,188-24.28,272.59-37.57A2162.67,2162.67,0,0,1,912.16,248.45Z"/><path class="cls-11" d="M1580.36,136.91q-89.23,16.6-191.33,32.8c73.19-20.79,136.91-43.18,190.23-64.13Z"/><path class="cls-12" d="M1116.44,207.24C824.8,227.38,542.35,193,311.87,115.44,251.11,56.17,217.61-4.62,201.45-62.45c201.49,141.09,454.79,222.91,707.8,228,264.67,5.29,500.67-74,666.82-150.89l3.19,90.94c-53.32,21-117,43.34-190.23,64.13-84.64,13.29-175.68,26-272.59,37.57Z"/><path class="cls-13" d="M1584.6,257.93,611.36,292.05c-32.1-11.61-63-24.37-92.27-38.18l6.62-.23c45.36-1.77,90.08-3.92,133.9-6.39a2215,2215,0,0,0,252.55,1.2A2162.67,2162.67,0,0,0,1389,169.71q101.94-16,191.33-32.8Z"/></g></svg>