<svg id="Layer_1" data-name="Layer 1" xmlns="http://www.w3.org/2000/svg" viewBox="0 0 400 100"><defs><style>.cls-1{font-size:47px;fill:#fff;font-family:neueRadial-B-ExtraBold;font-weight:800;}.cls-2{fill:#fff200;}</style></defs><text class="cls-1" transform="translate(24.47 69.06)">SPECI</text><path class="cls-2" d="M181.12,34.56a1.26,1.26,0,0,1,1.28.77l4.3,8.73a.54.54,0,0,0,.48.36c3.19.45,6.38.92,9.56,1.38.9.13,1.39.61,1.27,1.35a1.56,1.56,0,0,1-.45.81q-3.48,3.43-7,6.84a.55.55,0,0,0-.19.58c.56,3.24,1.11,6.49,1.67,9.74a1.14,1.14,0,0,1-.46,1.2,1.16,1.16,0,0,1-1.32.06c-2.89-1.52-5.79-3-8.67-4.57a.67.67,0,0,0-.71,0l-8.58,4.52a1.24,1.24,0,0,1-1.26.07,1.13,1.13,0,0,1-.61-1.23c.41-2.44.83-4.87,1.25-7.31.15-.87.31-1.74.44-2.62a.6.6,0,0,0-.19-.42l-6.52-6.37-.58-.57a1.13,1.13,0,0,1-.33-1.22,1.11,1.11,0,0,1,1-.81l5.47-.8,4.35-.63a.59.59,0,0,0,.51-.38l4.3-8.73A1.16,1.16,0,0,1,181.12,34.56Z"/><text class="cls-1" transform="translate(200.83 68.67)">L PRICE</text></svg>